<svg xmlns="http://www.w3.org/2000/svg" viewBox="0 0 1600 900" role="img" aria-label="Signal before the open hero scene">
  <defs>
    <radialGradient id="bgBlue" cx="75%" cy="8%" r="55%">
      <stop offset="0" stop-color="#0b1a52" stop-opacity="0.86"/>
      <stop offset="0.42" stop-color="#060917" stop-opacity="0.95"/>
      <stop offset="1" stop-color="#02040a"/>
    </radialGradient>
    <radialGradient id="leftGlow" cx="15%" cy="55%" r="34%">
      <stop offset="0" stop-color="#09266d" stop-opacity="0.44"/>
      <stop offset="1" stop-color="#02040a" stop-opacity="0"/>
    </radialGradient>
    <linearGradient id="desk" x1="0" x2="0" y1="0" y2="1">
      <stop offset="0" stop-color="#1a0b03" stop-opacity="0"/>
      <stop offset="0.55" stop-color="#2a1107" stop-opacity="0.55"/>
      <stop offset="1" stop-color="#0b0503"/>
    </linearGradient>
    <linearGradient id="blueText" x1="0" x2="0" y1="0" y2="1">
      <stop offset="0" stop-color="#1e66ff"/>
      <stop offset="1" stop-color="#003cff"/>
    </linearGradient>
    <linearGradient id="screenFace" x1="0" x2="1" y1="0" y2="1">
      <stop offset="0" stop-color="#061020"/>
      <stop offset="0.55" stop-color="#030813"/>
      <stop offset="1" stop-color="#01040a"/>
    </linearGradient>
    <linearGradient id="screenGlow" x1="0" x2="1" y1="0" y2="0">
      <stop offset="0" stop-color="#061226" stop-opacity="0"/>
      <stop offset="0.63" stop-color="#0b1c55" stop-opacity="0.66"/>
      <stop offset="1" stop-color="#06111e" stop-opacity="0"/>
    </linearGradient>
    <linearGradient id="chartFill" x1="0" x2="0" y1="0" y2="1">
      <stop offset="0" stop-color="#5fff00" stop-opacity="0.45"/>
      <stop offset="1" stop-color="#5fff00" stop-opacity="0"/>
    </linearGradient>
    <filter id="softWhite" x="-20%" y="-20%" width="140%" height="140%">
      <feDropShadow dx="0" dy="6" stdDeviation="10" flood-color="#ffffff" flood-opacity="0.14"/>
    </filter>
    <filter id="greenGlow" x="-40%" y="-40%" width="180%" height="180%">
      <feGaussianBlur stdDeviation="4" result="blur"/>
      <feMerge><feMergeNode in="blur"/><feMergeNode in="SourceGraphic"/></feMerge>
    </filter>
    <filter id="blueGlow" x="-40%" y="-40%" width="180%" height="180%">
      <feDropShadow dx="0" dy="0" stdDeviation="15" flood-color="#0757ff" flood-opacity="0.42"/>
    </filter>
    <filter id="yellowGlow" x="-40%" y="-40%" width="180%" height="180%">
      <feDropShadow dx="0" dy="0" stdDeviation="11" flood-color="#f8f200" flood-opacity="0.64"/>
    </filter>
    <filter id="orangeGlow" x="-40%" y="-40%" width="180%" height="180%">
      <feDropShadow dx="0" dy="0" stdDeviation="14" flood-color="#ff9d00" flood-opacity="0.38"/>
    </filter>
    <pattern id="dots" width="14" height="14" patternUnits="userSpaceOnUse">
      <circle cx="2" cy="2" r="1" fill="#065dff" opacity="0.72"/>
    </pattern>
    <style>
      .sans{font-family:Inter, ui-sans-serif, system-ui, -apple-system, BlinkMacSystemFont, "Segoe UI", sans-serif}
      .mono{font-family:"SFMono-Regular", Consolas, "Liberation Mono", monospace}
      .serif{font-family:Georgia, serif}
    </style>
  </defs>

  <rect width="1600" height="900" fill="#02040a"/>
  <rect width="1600" height="900" fill="url(#bgBlue)"/>
  <rect width="1600" height="900" fill="url(#leftGlow)"/>
  <rect x="870" y="28" width="600" height="300" fill="url(#dots)" opacity="0.42"/>
  <rect x="0" y="650" width="1600" height="250" fill="url(#desk)"/>
  <ellipse cx="1000" cy="788" rx="620" ry="78" fill="#2c1205" opacity="0.56"/>

  <!-- Header -->
  <text x="64" y="61" fill="#fff" font-size="31" font-weight="800" class="sans">lb</text>
  <text x="111" y="62" fill="#ffb000" font-size="38" font-weight="300" class="sans">/</text>
  <text x="154" y="61" fill="#fff" font-size="31" font-weight="800" class="sans">signal</text>
  <g fill="#efe5b8" font-size="17" class="sans">
    <text x="398" y="63">How it works</text>
    <text x="530" y="63">Performance</text>
    <text x="656" y="63">Method</text>
    <text x="767" y="63">Pricing</text>
    <text x="866" y="63">FAQ</text>
  </g>
  <line x1="398" x2="500" y1="78" y2="78" stroke="#f8f200" stroke-width="3" filter="url(#yellowGlow)"/>
  <rect x="1320" y="25" width="214" height="58" rx="29" fill="#fff" opacity="0.08" stroke="#fff" stroke-opacity="0.17"/>
  <text x="1362" y="60" fill="#fff" font-size="18" font-weight="700" class="sans">Join the lounge</text>
  <path d="M1490 53h20m-8-9 9 9-9 9" stroke="#fff" stroke-width="2.4" stroke-linecap="round" stroke-linejoin="round" fill="none"/>

  <!-- Main headline -->
  <g class="sans" font-weight="950" filter="url(#softWhite)">
    <text x="64" y="294" fill="#fff" font-size="106" letter-spacing="-7">Signal</text>
    <text x="64" y="396" fill="url(#blueText)" font-size="106" letter-spacing="-7">before</text>
    <text x="64" y="498" fill="#fff" font-size="106" letter-spacing="-7">the open</text>
    <text x="461" y="498" fill="#0d57ff" font-size="106" letter-spacing="-7">.</text>
  </g>
  <text x="66" y="565" fill="#fff4c8" font-size="20" class="sans">AI-driven signals. One trade.</text>
  <text x="66" y="592" fill="#fff4c8" font-size="20" class="sans">Every Sunday before the market opens.</text>

  <!-- CTAs -->
  <rect x="66" y="635" width="255" height="54" rx="12" fill="#0757ff" filter="url(#blueGlow)"/>
  <text x="91" y="669" fill="#fff" font-size="18" font-weight="600" class="sans">See this week’s signal</text>
  <path d="M281 662h16m-7-7 8 8-8 8" stroke="#fff" stroke-width="2" stroke-linecap="round" stroke-linejoin="round" fill="none"/>
  <text x="365" y="669" fill="#fff" font-size="18" class="sans">How it works</text>
  <line x1="365" x2="468" y1="684" y2="684" stroke="#f8f200" stroke-width="2.5" filter="url(#yellowGlow)"/>

  <!-- Monitor -->
  <g transform="translate(760 130) rotate(-4 325 285)">
    <rect x="0" y="0" width="665" height="510" rx="34" fill="#03070e" stroke="#b56d12" stroke-opacity="0.55" stroke-width="2"/>
    <rect x="22" y="24" width="621" height="462" rx="28" fill="url(#screenFace)" stroke="#fff" stroke-opacity="0.08"/>
    <rect x="22" y="24" width="621" height="462" rx="28" fill="url(#screenGlow)"/>
    <g class="mono" fill="#fff">
      <circle cx="60" cy="78" r="7" fill="#77ff32" filter="url(#greenGlow)"/>
      <text x="82" y="84" font-size="18">THIS WEEK</text>
      <rect x="218" y="56" width="62" height="36" rx="12" fill="#183c0e"/>
      <text x="236" y="80" fill="#7aff24" font-size="16">LONG</text>
      <text x="538" y="73" font-size="17">WEEK 21 ⛶</text>
    </g>

    <text x="70" y="176" fill="#fff" font-size="48" font-weight="900" class="sans">SPY</text>
    <text x="156" y="174" fill="#d7dcec" font-size="18" class="sans">S&amp;P 500</text>
    <text x="72" y="224" fill="#fff" font-size="40" font-weight="300" class="sans">598.40</text>
    <rect x="72" y="244" width="82" height="42" rx="12" fill="#14340a"/>
    <text x="85" y="272" fill="#75ff17" font-size="25" class="sans">+1.2%</text>

    <g transform="translate(330 155)">
      <path d="M0 122 L30 96 L54 103 L82 62 L110 71 L140 40 L170 48 L205 20 L236 30 L268 5 L305 15 L305 140 L0 140 Z" fill="url(#chartFill)"/>
      <path d="M0 122 L30 96 L54 103 L82 62 L110 71 L140 40 L170 48 L205 20 L236 30 L268 5 L305 15" fill="none" stroke="#68ff27" stroke-width="4" stroke-linecap="round" stroke-linejoin="round" filter="url(#greenGlow)"/>
      <path d="M182 56 L287 17" fill="none" stroke="#ffb000" stroke-width="5" stroke-linecap="round"/>
      <ellipse cx="225" cy="28" rx="105" ry="30" transform="rotate(-11 225 28)" fill="none" stroke="#ffb000" stroke-width="1.4" filter="url(#orangeGlow)"/>
      <text x="173" y="44" fill="#fff" font-size="23" class="mono" font-style="italic" transform="rotate(-11 173 44)">real signal.</text>
      <g fill="#fff" font-size="12" font-weight="700" class="mono">
        <text x="38" y="150">M</text><text x="104" y="150">T</text><text x="174" y="150">W</text><text x="242" y="150">T</text><text x="300" y="150">F</text>
      </g>
    </g>

    <g transform="translate(54 318)">
      <rect x="0" y="0" width="545" height="82" rx="18" fill="#fff" opacity="0.035" stroke="#fff" stroke-opacity="0.05"/>
      <text x="22" y="34" fill="#dce1e9" font-size="15" class="sans">Confidence</text>
      <g transform="translate(22 54)" filter="url(#greenGlow)">
        <rect x="0" y="0" width="10" height="13" rx="2" fill="#7cff2e"/><rect x="18" y="0" width="10" height="13" rx="2" fill="#7cff2e"/><rect x="36" y="0" width="10" height="13" rx="2" fill="#7cff2e"/><rect x="54" y="0" width="10" height="13" rx="2" fill="#7cff2e"/><rect x="72" y="0" width="10" height="13" rx="2" fill="#7cff2e"/><rect x="90" y="0" width="10" height="13" rx="2" fill="#7cff2e"/><rect x="108" y="0" width="10" height="13" rx="2" fill="#7cff2e"/><rect x="126" y="0" width="10" height="13" rx="2" fill="#7cff2e"/><rect x="144" y="0" width="10" height="13" rx="2" fill="#7cff2e"/>
      </g>
      <line x1="277" x2="277" y1="14" y2="68" stroke="#fff" stroke-opacity="0.06"/>
      <text x="300" y="32" fill="#dce1e9" font-size="15" class="sans">Model</text>
      <text x="300" y="66" fill="#fff" font-size="22" class="sans">TrendFlowv2</text>
    </g>
    <g transform="translate(54 418)">
      <rect x="0" y="0" width="545" height="92" rx="18" fill="#fff" opacity="0.025" stroke="#fff" stroke-opacity="0.05"/>
      <text x="22" y="37" fill="#dce1e9" font-size="15" class="sans">Market bias</text>
      <text x="22" y="70" fill="#75ff17" font-size="25" class="sans">BULLISH</text>
      <g transform="translate(435 47)">
        <circle cx="0" cy="0" r="55" fill="#70ff1d" opacity="0.05"/>
        <circle cx="0" cy="0" r="48" fill="none" stroke="#70ff1d" stroke-opacity="0.22"/>
        <circle cx="0" cy="0" r="30" fill="none" stroke="#70ff1d" stroke-opacity="0.22"/>
        <circle cx="0" cy="0" r="13" fill="none" stroke="#70ff1d" stroke-opacity="0.22"/>
        <circle cx="-42" cy="-24" r="10" fill="#70ff1d" filter="url(#greenGlow)"/>
        <circle cx="0" cy="0" r="7" fill="#70ff1d" filter="url(#greenGlow)"/>
      </g>
    </g>
    <path d="M300 510h90l26 44H274z" fill="#0b0d13"/>
    <ellipse cx="345" cy="558" rx="116" ry="15" fill="#050609"/>
  </g>

  <!-- Desk objects -->
  <g transform="translate(570 622)">
    <rect x="0" y="0" width="95" height="95" rx="17" fill="#05080a" stroke="#e6ff00" stroke-opacity="0.75" filter="url(#yellowGlow)"/>
    <rect x="8" y="8" width="79" height="79" rx="12" fill="#05060a" stroke="#fff" stroke-opacity="0.06"/>
    <text x="30" y="60" fill="#fff" font-size="39" font-weight="800" class="sans">lb</text>
    <text x="67" y="61" fill="#ffb000" font-size="39" font-weight="300" class="sans">/</text>
  </g>

  <g transform="translate(1246 650)" filter="url(#orangeGlow)">
    <path d="M0 0h150v64c0 26-22 46-50 46H46C20 110 0 90 0 64z" fill="#050505" stroke="#ff9d00" stroke-opacity="0.62"/>
    <path d="M146 30c38-2 43 52 5 58" fill="none" stroke="#080808" stroke-width="18"/>
    <text x="36" y="66" fill="#fff" font-size="23" class="serif">Long</text>
    <text x="88" y="66" fill="#ffb000" font-size="20" font-style="italic" class="serif">brunch</text>
  </g>

  <g transform="translate(1445 620)">
    <path d="M60 210 L125 58" stroke="#11151c" stroke-width="10"/>
    <path d="M98 78c48-15 91 14 95 60-45 12-86 4-120-24z" fill="#050506" stroke="#222"/>
    <ellipse cx="132" cy="134" rx="52" ry="18" fill="#ffd891" opacity="0.95" filter="url(#orangeGlow)"/>
  </g>

  <g transform="translate(1398 720)">
    <rect x="0" y="0" width="65" height="48" fill="#c88b38" opacity="0.92" transform="rotate(8)"/>
    <text x="13" y="20" fill="#2b1600" font-size="15" class="sans" transform="rotate(8)">Live</text>
    <text x="12" y="37" fill="#2b1600" font-size="15" class="sans" transform="rotate(8)">now</text>
  </g>

  <g transform="translate(1358 640)">
    <rect x="28" y="98" width="48" height="42" rx="5" fill="#3c2417"/>
    <path d="M54 100 C34 58 15 45 0 28" stroke="#163914" stroke-width="9" fill="none" stroke-linecap="round"/>
    <path d="M54 100 C48 52 48 28 45 0" stroke="#163914" stroke-width="9" fill="none" stroke-linecap="round"/>
    <path d="M54 100 C72 58 92 45 110 22" stroke="#163914" stroke-width="9" fill="none" stroke-linecap="round"/>
    <path d="M54 100 C88 74 112 78 132 54" stroke="#163914" stroke-width="9" fill="none" stroke-linecap="round"/>
  </g>

  <!-- Bottom ticker -->
  <g transform="translate(70 810)">
    <rect x="0" y="0" width="1460" height="60" rx="30" fill="#fff" opacity="0.075" stroke="#fff" stroke-opacity="0.28"/>
    <g class="sans" font-size="18">
      <circle cx="42" cy="30" r="5" fill="#0757ff"/><text x="64" y="37" fill="#fff">SPY</text><text x="119" y="37" fill="#fff" opacity="0.65">598.40</text><text x="205" y="37" fill="#75ff17">+1.2%</text>
      <circle cx="305" cy="30" r="5" fill="#0757ff"/><text x="327" y="37" fill="#fff">QQQ</text><text x="389" y="37" fill="#fff" opacity="0.65">511.82</text><text x="480" y="37" fill="#75ff17">+0.8%</text>
      <circle cx="580" cy="30" r="5" fill="#0757ff"/><text x="602" y="37" fill="#fff">VIX</text><text x="650" y="37" fill="#fff" opacity="0.65">14.3</text><text x="714" y="37" fill="#ff7a22">−1.8%</text>
      <circle cx="810" cy="30" r="5" fill="#0757ff"/><text x="832" y="37" fill="#fff">TLT</text><text x="884" y="37" fill="#fff" opacity="0.65">88.22</text><text x="959" y="37" fill="#ff7a22">−0.5%</text>
      <circle cx="1066" cy="30" r="5" fill="#0757ff"/><text x="1088" y="37" fill="#fff">GLD</text><text x="1145" y="37" fill="#fff" opacity="0.65">318.90</text><text x="1232" y="37" fill="#75ff17">+0.1%</text>
      <rect x="1314" y="9" width="128" height="42" rx="21" fill="#fff" opacity="0.06" stroke="#fff" stroke-opacity="0.11"/>
      <text x="1365" y="36" fill="#fff">Live now</text>
      <path d="M1342 23v14M1334 27v6M1350 19v22M1358 26v8" stroke="#fff" stroke-width="2" stroke-linecap="round"/>
    </g>
  </g>
</svg>